name processed_emg_signals						
nRows=112						
nColumns=7						
 						
endheader						
time	LGLTMED	LRF	LADDLONG	LST	LTA	LGM
0.000752	0.06301661	0.023546772	0.071511684	0.073867359	0.01693531	0.019397401
0.001752	0.051609257	0.00811109	0.086474684	0.079616551	0.028778536	0.00987841
0.002752	0.040172203	0.00732047	0.101457753	0.085430366	0.040694977	0.000312853
0.003752	0.028711332	0.022739047	0.116452575	0.091305787	0.052679288	0.009294627
0.004752	0.017232542	0.038135791	0.131450841	0.097239728	0.064726086	0.018939347
0.005752	0.005741737	0.053501874	0.146444258	0.103229042	0.076829953	0.028616595
0.006752	0.005755183	0.068828502	0.16142456	0.109270519	0.088985445	0.038321629
0.007752	0.017252324	0.084106928	0.176383524	0.115360895	0.101187101	0.048049689
0.008752	0.028743809	0.099328458	0.191312976	0.121496855	0.113429446	0.057795996
0.009752	0.040223783	0.114484468	0.206204808	0.127675037	0.125707005	0.067555762
0.010752	0.05168642	0.129566411	0.221050984	0.133892033	0.138014302	0.077324197
0.011752	0.063125928	0.14456583	0.235843556	0.1401444	0.150345874	0.087096506
0.012752	0.074536559	0.159474365	0.250574672	0.146428657	0.162696272	0.096867903
0.013752	0.085912609	0.174283765	0.265236586	0.152741295	0.175060075	0.106633612
0.014752	0.09724843	0.1889859	0.279821671	0.159078777	0.187431888	0.116388871
0.015752	0.10853843	0.203572765	0.294322427	0.165437543	0.199806355	0.12612894
0.016752	0.119777081	0.218036494	0.308731488	0.171814013	0.212178163	0.135849104
0.017752	0.130958924	0.232369366	0.323041639	0.178204595	0.224542047	0.145544677
0.018752	0.142078572	0.246563815	0.337245816	0.184605682	0.236892801	0.155211008
0.019752	0.153130716	0.260612439	0.351337118	0.191013661	0.249225275	0.164843484
0.020752	0.164110129	0.274508004	0.365308819	0.197424914	0.26153439	0.174437538
0.021752	0.175011668	0.288243456	0.379154367	0.203835821	0.273815137	0.183988646
0.022752	0.185830279	0.301811924	0.392867399	0.210242764	0.286062587	0.19349234
0.023752	0.196561002	0.315206731	0.406441742	0.216642133	0.29827189	0.202944205
0.024752	0.207198971	0.328421396	0.419871423	0.223030324	0.310438287	0.212339888
0.025752	0.217739419	0.341449645	0.433150671	0.229403744	0.32255711	0.221675096
0.026752	0.228177678	0.354285412	0.446273927	0.235758818	0.334623787	0.230945607
0.027752	0.238509187	0.366922846	0.459235844	0.242091984	0.346633848	0.240147267
0.028752	0.248729488	0.379356318	0.472031293	0.248399703	0.358582928	0.249275999
0.029752	0.258834232	0.391580423	0.484655367	0.254678458	0.370466769	0.258327802
0.030752	0.26881918	0.403589985	0.497103383	0.26092476	0.382281229	0.267298756
0.031752	0.278680203	0.415380062	0.509370886	0.267135144	0.394022279	0.276185027
0.032752	0.288413287	0.42694595	0.521453651	0.273306181	0.40568601	0.284982869
0.033752	0.298014532	0.438283182	0.533347684	0.279434471	0.417268636	0.293688625
0.034752	0.307480153	0.449387537	0.545049223	0.285516655	0.428766493	0.302298733
0.035752	0.316806482	0.46025504	0.556554739	0.291549409	0.440176046	0.310809728
0.036752	0.325989971	0.470881962	0.567860935	0.297529453	0.451493889	0.319218245
0.037752	0.33502719	0.481264825	0.578964749	0.303453549	0.462716747	0.327521021
0.038752	0.343914829	0.491400405	0.589863349	0.309318507	0.473841477	0.335714897
0.039752	0.3526497	0.501285726	0.600554134	0.315121186	0.484865071	0.343796825
0.040752	0.361228737	0.51091807	0.611034733	0.320858496	0.495784656	0.351763866
0.041752	0.369648996	0.520294971	0.621303	0.326527401	0.506597495	0.359613192
0.042752	0.377907658	0.52941422	0.631357016	0.332124925	0.517300987	0.367342093
0.043752	0.386002028	0.538273859	0.641195079	0.337648147	0.527892668	0.374947977
0.044752	0.393929535	0.546872187	0.650815708	0.343094211	0.538370211	0.382428371
0.045752	0.401687736	0.555207753	0.660217635	0.348460326	0.548731425	0.389780926
0.046752	0.409274315	0.563279359	0.669399802	0.353743766	0.558974256	0.397003415
0.047752	0.416687082	0.571086057	0.678361356	0.358941879	0.569096783	0.40409374
0.048752	0.423923977	0.578627147	0.687101647	0.364052082	0.57909722	0.411049931
0.049752	0.430983068	0.585902175	0.695620219	0.369071871	0.588973913	0.417870151
0.050752	0.437862556	0.592910927	0.703916805	0.373998819	0.598725339	0.424552693
0.051752	0.444560769	0.599653433	0.711991325	0.378830579	0.608350104	0.431095986
0.052752	0.451076171	0.606129957	0.719843879	0.38356489	0.617846939	0.437498594
0.053752	0.457407358	0.612340995	0.727474737	0.388199576	0.627214701	0.443759223
0.054752	0.463553058	0.618287274	0.734884336	0.392732551	0.636452366	0.449876714
0.055752	0.469512138	0.623969746	0.742073275	0.397161821	0.645559032	0.455850053
0.056752	0.475283597	0.629389581	0.749042305	0.401485486	0.654533908	0.461678366
0.057752	0.480866574	0.634548168	0.755792321	0.405701745	0.663376318	0.467360925
0.058752	0.486260346	0.639447105	0.76232436	0.409808894	0.672085694	0.472897147
0.059752	0.491464328	0.644088198	0.768639589	0.413805334	0.680661573	0.478286594
0.060752	0.496478077	0.648473454	0.774739299	0.417689568	0.689103591	0.483528978
0.061752	0.501301291	0.652605076	0.780624898	0.421460209	0.697411485	0.488624157
0.062752	0.50593381	0.656485459	0.786297903	0.425115977	0.70558508	0.493572138
0.063752	0.510375617	0.660117183	0.791759929	0.428655705	0.713624296	0.498373078
0.064752	0.514626842	0.663503009	0.797012689	0.43207834	0.721529132	0.503027284
0.065752	0.518687758	0.666645872	0.802057978	0.435382943	0.729299671	0.507535212
0.066752	0.522558784	0.669548876	0.806897669	0.438568694	0.73693607	0.511897467
0.067752	0.526240488	0.67221529	0.811533709	0.441634893	0.744438559	0.516114804
0.068752	0.529733583	0.674648539	0.815968102	0.444580958	0.751807433	0.520188128
0.069752	0.533038931	0.6768522	0.820202913	0.447406431	0.759043054	0.524118489
0.070752	0.536157542	0.678829998	0.824240252	0.450110979	0.766145836	0.527907085
0.071752	0.539090574	0.680585795	0.828082273	0.45269439	0.773116251	0.531555261
0.072752	0.541839333	0.68212359	0.831731163	0.45515658	0.77995482	0.535064503
0.073752	0.544405275	0.683447507	0.83518914	0.45749759	0.786662107	0.538436439
0.074752	0.54679	0.684561792	0.838458442	0.459717587	0.793238716	0.541672838
0.075752	0.548995259	0.68547081	0.841541324	0.461816865	0.79968529	0.544775603
0.076752	0.551022945	0.68617903	0.844440056	0.463795843	0.806002501	0.547746772
0.077752	0.552875098	0.686691028	0.847156909	0.465655067	0.812191049	0.550588515
0.078752	0.5545539	0.687011474	0.849694158	0.467395206	0.818251659	0.553303124
0.079752	0.556061675	0.687145129	0.852054076	0.469017056	0.824185073	0.555893018
0.080752	0.557400886	0.687096836	0.854238927	0.470521534	0.82999205	0.558360731
0.081752	0.558574134	0.686871517	0.856250963	0.471909677	0.83567336	0.560708912
0.082752	0.559584153	0.686474163	0.858092426	0.473182642	0.841229782	0.562940317
0.083752	0.560433811	0.685909829	0.859765537	0.474341705	0.846662099	0.565057806
0.084752	0.561126101	0.685183625	0.861272501	0.475388254	0.851971095	0.567064336
0.085752	0.561664145	0.684300716	0.862615498	0.47632379	0.857157551	0.568962954
0.086752	0.562051184	0.683266305	0.863796687	0.477149924	0.862222246	0.570756792
0.087752	0.562290577	0.682085638	0.864818203	0.477868371	0.867165948	0.572449062
0.088752	0.562385797	0.680763988	0.865682155	0.478480951	0.871989417	0.574043046
0.089752	0.562340425	0.679306653	0.866390626	0.47898958	0.876693401	0.57554209
0.090752	0.562158147	0.677718949	0.866945675	0.47939627	0.881278631	0.576949598
0.091752	0.561842747	0.676006206	0.867349335	0.479703125	0.885745825	0.578269023
0.092752	0.561398106	0.674173756	0.867603614	0.479912334	0.89009568	0.579503862
0.093752	0.560828189	0.672226933	0.8677105	0.48002617	0.894328875	0.580657646
0.094752	0.560137047	0.670171064	0.867671956	0.480046982	0.898446071	0.581733932
0.095752	0.559328808	0.668011463	0.86748993	0.479977192	0.902447905	0.582736298
0.096752	0.558407668	0.665753426	0.867166349	0.479819292	0.906334994	0.583668333
0.097752	0.557377893	0.663402229	0.866703128	0.479575835	0.910107934	0.584533629
0.098752	0.556243801	0.660963115	0.866102172	0.479249432	0.913767301	0.585335773
0.099752	0.555009767	0.658441296	0.865365376	0.478842748	0.917313647	0.586078343
0.100752	0.553680208	0.655841945	0.864494632	0.478358493	0.920747507	0.586764894
0.101752	0.552259581	0.65317019	0.863491832	0.477799421	0.924069397	0.587398955
0.102752	0.550752375	0.650431114	0.862358871	0.477168321	0.927279814	0.587984018
0.103752	0.5491631	0.647629743	0.861097654	0.476468014	0.93037924	0.588523535
0.104752	0.547496289	0.644771049	0.859710096	0.475701344	0.933368145	0.589020905
0.105752	0.545756482	0.641859943	0.858198132	0.474871177	0.936246986	0.58947947
0.106752	0.543948223	0.638901269	0.856563717	0.473980393	0.939016214	0.58990251
0.107752	0.542076053	0.635899803	0.854808833	0.473031876	0.941676272	0.59029323
0.108752	0.540144504	0.632860251	0.852935493	0.472028519	0.944227603	0.590654759
0.109752	0.538158088	0.629787238	0.850945747	0.470973208	0.946670652	0.59099014
0.110752	0.536121295	0.626685315	0.848841684	0.46986882	0.949005867	0.591302328
0.111752	0.534038582	0.623558948	0.84662544	0.468718222	0.951233709	0.591594178
